PathFileType	4	(X/Y/Z)	C:/Users/opensim2020/Desktop/walking_exp_matlab/subject01_walking08_straight_01.trc	
DataRate	CameraRate	NumFrames	NumMarkers	Units	OrigDataRate	OrigDataStartFrame	OrigNumFrames	
100.00	100.00	4	43	mm	100.00	965	377	
Frame#	Time	LFHD			RFHD			LBHD			RBHD			C7			T10			CLAV			STRN			RBAK			LSHO			LUPA			LELB			LFRM			LWRA			LWRB			LFIN			RSHO			RUPA			RELB			RFRM			RWRA			RWRB			RFIN			LASI			RASI			LPSI			RPSI			LTHI			LKNE			LTIB			LANK			LHEE			LTOE			RTHI			RKNE			RTIB			RANK			RHEE			RTOE			*39			*40			*41			*42			
		X1	Y1	Z1	X2	Y2	Z2	X3	Y3	Z3	X4	Y4	Z4	X5	Y5	Z5	X6	Y6	Z6	X7	Y7	Z7	X8	Y8	Z8	X9	Y9	Z9	X10	Y10	Z10	X11	Y11	Z11	X12	Y12	Z12	X13	Y13	Z13	X14	Y14	Z14	X15	Y15	Z15	X16	Y16	Z16	X17	Y17	Z17	X18	Y18	Z18	X19	Y19	Z19	X20	Y20	Z20	X21	Y21	Z21	X22	Y22	Z22	X23	Y23	Z23	X24	Y24	Z24	X25	Y25	Z25	X26	Y26	Z26	X27	Y27	Z27	X28	Y28	Z28	X29	Y29	Z29	X30	Y30	Z30	X31	Y31	Z31	X32	Y32	Z32	X33	Y33	Z33	X34	Y34	Z34	X35	Y35	Z35	X36	Y36	Z36	X37	Y37	Z37	X38	Y38	Z38	X39	Y39	Z39	X40	Y40	Z40	X41	Y41	Z41	X42	Y42	Z42	X43	Y43	Z43	

236	2.350	-1111.32886	18.31924	1680.61670	-997.67358	25.06945	1689.43152	-1108.72729	-82.18233	1606.42944	-988.04449	-78.00153	1613.42285	-1064.57068	-85.92649	1432.26538	-1044.23279	-110.10833	1138.42798	-1057.68164	58.76435	1368.50708	-1056.98059	108.06441	1214.20935	-981.22382	-136.54112	1239.36633	-1221.23352	3.27030	1389.75781	-1302.88428	-10.78022	1202.02258	-1302.43164	-12.47438	1050.71228	-1323.31824	40.75358	948.98334	-1298.69666	132.71664	845.73438	-1326.66541	81.00217	833.62378	-1332.14526	138.08922	770.86737	-907.52435	-6.58986	1396.33130	-802.09723	-56.21326	1197.12964	-799.14105	-51.07452	1071.52893	-767.11047	-20.38214	955.50159	-785.41772	62.46893	840.83704	-746.77881	18.72176	840.71771	-747.35370	58.87352	764.97742	-1138.51001	71.87870	934.69403	-920.53284	62.61563	941.93848	-1091.11377	-117.28754	941.74432	-945.77954	-120.75362	947.67603	-1179.41553	65.06419	600.86749	-1157.53027	64.63605	466.98578	-1164.18347	9.66324	284.10565	-1107.58948	-29.24764	70.77890	-1057.33203	-77.53401	43.20653	-1106.72668	118.31206	35.34214	-845.27863	58.91604	609.89716	-856.64886	79.49052	452.54626	-856.61609	-57.89912	341.43561	-904.10834	-190.15210	182.98198	-961.61792	-245.53726	173.82928	-888.35406	-106.36478	68.20972	-1020.88043	5.01812	1718.19897	-3101.92871	1973.09888	1023.38074	-3140.66089	2012.48242	1022.00421			 
237	2.360	-1112.30530	23.87872	1680.95740	-998.50031	30.53830	1689.62939	-1109.71948	-76.62701	1606.94604	-989.05597	-72.65625	1613.83728	-1065.72717	-80.68389	1432.59021	-1045.36389	-105.18114	1138.84180	-1058.52527	63.91300	1368.75940	-1057.90564	113.18376	1214.48120	-982.59564	-131.48903	1239.59302	-1222.21802	8.73586	1390.08899	-1304.06128	-4.55498	1202.40186	-1303.79175	-4.94887	1051.05054	-1324.79053	49.52667	949.90668	-1300.48718	143.08928	847.97186	-1328.19727	91.40351	835.23871	-1333.72498	148.84578	773.02863	-908.48431	-1.73708	1396.54602	-803.30786	-51.61861	1197.29883	-800.45166	-46.64668	1071.78052	-768.38379	-16.19606	955.71057	-786.52832	66.57761	840.94220	-748.08380	22.65035	840.77863	-748.57343	62.75546	765.02484	-1139.47461	76.49298	934.78522	-921.44086	67.73547	942.55853	-1091.63403	-112.53814	942.00134	-946.28058	-115.70327	948.04602	-1180.13940	67.24870	600.70258	-1158.22021	66.08668	466.77539	-1164.63416	10.43469	284.07642	-1107.72681	-29.17502	70.88093	-1057.61926	-77.75147	43.44457	-1106.79834	118.15237	35.08741	-845.94574	67.47849	611.20837	-857.73566	89.79115	453.80283	-857.53442	-45.04954	339.81284	-905.44214	-174.16948	179.03506	-963.13104	-229.84590	168.40878	-888.90070	-87.90023	66.77808	-1021.59399	10.63543	1718.52417	-3101.90698	1973.19104	1023.26654	-3140.65894	2012.51440	1021.96851			 
238	2.370	-1112.99182	29.49553	1681.28149	-999.23462	36.05983	1689.81018	-1110.53455	-71.23019	1607.41187	-989.89209	-67.30093	1614.20410	-1066.74622	-75.48675	1432.89209	-1046.44104	-100.22848	1139.18591	-1059.33899	69.07722	1369.04456	-1058.71582	118.20098	1214.70093	-983.79187	-126.45877	1239.87488	-1223.10547	14.15745	1390.40674	-1305.05945	1.58836	1202.71033	-1305.01282	2.50389	1051.39136	-1326.12952	58.26152	950.87433	-1302.06604	153.38725	850.29333	-1329.56934	101.77679	836.82123	-1335.43286	160.10075	775.43951	-909.41772	3.19200	1396.80042	-804.35980	-46.97477	1197.53650	-801.60864	-42.28136	1072.03467	-769.65253	-11.98352	955.91400	-787.61346	70.68179	841.00415	-749.24817	26.62160	840.83643	-749.80255	66.63997	765.02429	-1140.30042	81.09486	934.69214	-922.38251	72.58926	942.99048	-1092.15808	-107.82134	942.27185	-946.61914	-110.81988	948.39355	-1180.82263	69.25996	600.59772	-1158.81665	67.41873	466.52386	-1165.04626	11.15407	284.02725	-1107.81958	-29.13412	70.89897	-1057.66455	-77.68618	43.74024	-1106.85364	118.13922	35.02100	-846.53632	75.70183	612.38245	-858.60803	99.97581	455.15311	-858.58728	-32.24234	337.67786	-906.87146	-157.96231	174.45349	-964.89026	-213.42331	162.48627	-889.63208	-68.97540	65.10931	-1022.50311	16.17626	1718.74426	-3102.00293	1973.15967	1023.39258	-3140.70483	2012.60779	1022.08521			 
239	2.380	-1113.65417	35.01929	1681.51501	-999.90796	41.48870	1690.04895	-1111.36316	-65.83083	1607.84167	-990.76324	-61.96429	1614.58643	-1067.76013	-70.28361	1433.20508	-1047.47913	-95.22179	1139.46582	-1060.12622	74.19324	1369.26172	-1059.49463	123.27249	1214.95264	-984.95227	-121.42024	1240.12976	-1223.94409	19.54527	1390.69312	-1306.01111	7.73648	1203.04614	-1306.22876	9.82636	1051.73132	-1327.43262	66.98992	951.97351	-1303.59412	163.67218	852.73523	-1330.88928	112.17939	838.55383	-1336.57007	171.16374	777.76593	-910.24701	8.07754	1397.02734	-805.39856	-42.34822	1197.74829	-802.75256	-37.82743	1072.22253	-770.79755	-7.79366	956.08606	-788.74976	74.70358	841.12030	-750.45105	30.55266	840.90417	-750.88983	70.59368	765.22772	-1141.14160	85.57866	934.70056	-923.28027	77.59740	943.45056	-1092.56604	-103.15731	942.45319	-947.07245	-105.87583	948.66779	-1181.41040	71.39561	600.35339	-1159.42358	68.80278	466.28250	-1165.36169	11.80752	283.92355	-1107.90173	-29.11251	70.98572	-1057.62354	-77.68964	43.75788	-1106.99072	118.09500	35.08321	-847.17584	83.76977	613.62207	-859.59015	109.85548	456.42633	-859.29102	-19.00568	335.54980	-907.88660	-141.58147	170.12636	-966.40631	-196.70268	155.75945	-890.26056	-49.34250	63.42433	-1023.13770	21.73860	1719.00500	-3101.94067	1973.12158	1023.50470	-3140.75439	2012.46301	1021.96796			 
